<!DOCTYPE svg PUBLIC "-//W3C//DTD SVG 1.1//EN" "http://www.w3.org/Graphics/SVG/1.1/DTD/svg11.dtd" >
<svg version="1.1" id="Layer_1" class="h-9" xmlns:x="&ns_extend;" xmlns:i="&ns_ai;" xmlns:graph="&ns_graphs;"
	 xmlns="http://www.w3.org/2000/svg" xmlns:xlink="http://www.w3.org/1999/xlink" x="0px" y="0px" viewBox="0 0 428.01 96.42"
	 style="enable-background:new 0 0 428.01 96.42;" xml:space="preserve">
<style type="text/css">
	.st1{fill:#003F91;}
</style>
<switch>
	<g i:extraneous="self">
		<g>
			<path class="fill-current dark:text-white" d="M128.02,36.48h13.7l13,21.95l12.92-21.95h13.62l-20.63,34.25v21.33h-12.22V70.42L128.02,36.48z"/>
			<path class="fill-current dark:text-white" d="M176.35,63.22c0.98-2.62,2.39-4.85,4.2-6.69c1.82-1.84,4-3.27,6.54-4.28c2.54-1.01,5.4-1.52,8.56-1.52
				c3.16,0,6.03,0.51,8.6,1.52c2.57,1.01,4.76,2.44,6.58,4.28c1.82,1.84,3.22,4.07,4.2,6.69c0.98,2.62,1.48,5.54,1.48,8.76
				c0,3.22-0.49,6.12-1.48,8.72c-0.99,2.6-2.39,4.81-4.2,6.65c-1.82,1.84-4.01,3.26-6.58,4.24c-2.57,0.98-5.44,1.48-8.6,1.48
				c-3.17,0-6.02-0.49-8.56-1.48c-2.54-0.99-4.72-2.4-6.54-4.24c-1.82-1.84-3.22-4.06-4.2-6.65c-0.99-2.59-1.48-5.5-1.48-8.72
				C174.87,68.76,175.36,65.84,176.35,63.22z M186.39,76.69c0.31,1.53,0.84,2.91,1.6,4.13c0.75,1.22,1.75,2.19,3,2.92
				c1.25,0.73,2.8,1.09,4.67,1.09s3.44-0.36,4.71-1.09c1.27-0.73,2.28-1.7,3.04-2.92c0.75-1.22,1.28-2.59,1.6-4.13
				c0.31-1.53,0.47-3.1,0.47-4.71c0-1.61-0.16-3.19-0.47-4.75c-0.31-1.56-0.84-2.93-1.6-4.13c-0.75-1.19-1.77-2.17-3.04-2.92
				c-1.27-0.75-2.84-1.13-4.71-1.13s-3.42,0.38-4.67,1.13c-1.25,0.75-2.25,1.73-3,2.92c-0.75,1.19-1.28,2.57-1.6,4.13
				c-0.31,1.56-0.47,3.14-0.47,4.75C185.92,73.59,186.08,75.16,186.39,76.69z"/>
			<path class="fill-current dark:text-white" d="M250.92,92.06v-5.6h-0.23c-1.4,2.34-3.22,4.02-5.45,5.06c-2.23,1.04-4.51,1.56-6.85,1.56
				c-2.96,0-5.38-0.39-7.28-1.17c-1.89-0.78-3.39-1.88-4.48-3.31c-1.09-1.43-1.86-3.16-2.3-5.21c-0.44-2.05-0.66-4.32-0.66-6.81
				V51.82h11.05v22.73c0,3.32,0.52,5.8,1.56,7.43c1.04,1.63,2.88,2.45,5.53,2.45c3.01,0,5.19-0.9,6.54-2.69
				c1.35-1.79,2.02-4.73,2.02-8.83V51.82h11.05v40.24H250.92z"/>
			<path class="fill-current dark:text-white" d="M274.38,36.48h4.9L301,81.25h0.16l21.48-44.76h4.9v55.57h-3.42V40.69h-0.16l-21.17,44.37h-3.42l-21.41-44.37
				h-0.16v51.37h-3.42V36.48z"/>
			<path class="fill-current dark:text-white" d="M363.35,84.12h-0.16c-0.47,1.19-1.14,2.32-2.02,3.39c-0.88,1.06-1.96,2.01-3.23,2.84
				c-1.27,0.83-2.71,1.48-4.32,1.95c-1.61,0.47-3.37,0.7-5.29,0.7c-4.26,0-7.55-0.92-9.89-2.76c-2.33-1.84-3.5-4.68-3.5-8.52
				c0-2.34,0.47-4.24,1.4-5.72c0.93-1.48,2.11-2.65,3.54-3.5c1.43-0.86,3.01-1.47,4.75-1.83c1.74-0.36,3.41-0.62,5.02-0.78
				l4.59-0.39c2.13-0.16,3.8-0.4,5.02-0.74c1.22-0.34,2.14-0.8,2.76-1.4c0.62-0.6,1.01-1.36,1.17-2.3c0.16-0.93,0.23-2.1,0.23-3.5
				c0-1.09-0.21-2.1-0.62-3.04c-0.42-0.93-1.06-1.76-1.95-2.49c-0.88-0.73-2.02-1.3-3.42-1.71c-1.4-0.41-3.11-0.62-5.14-0.62
				c-3.58,0-6.47,0.88-8.68,2.65c-2.21,1.76-3.41,4.44-3.62,8.02h-2.96c0.21-4.41,1.62-7.72,4.24-9.92
				c2.62-2.2,6.34-3.31,11.17-3.31c4.83,0,8.34,0.95,10.55,2.84c2.2,1.89,3.31,4.37,3.31,7.43v23.27c0,0.57,0.01,1.14,0.04,1.71
				c0.03,0.57,0.12,1.09,0.27,1.56c0.16,0.47,0.42,0.84,0.78,1.13c0.36,0.29,0.88,0.43,1.56,0.43c0.52,0,1.25-0.08,2.18-0.23v2.49
				c-0.78,0.21-1.58,0.31-2.41,0.31c-1.19,0-2.14-0.16-2.84-0.47c-0.7-0.31-1.23-0.73-1.6-1.25c-0.36-0.52-0.61-1.13-0.74-1.83
				c-0.13-0.7-0.19-1.47-0.19-2.3V84.12z M363.35,69.33c-0.73,0.88-1.83,1.48-3.31,1.79c-1.48,0.31-3.13,0.55-4.94,0.7l-4.98,0.47
				c-1.45,0.16-2.91,0.38-4.36,0.66c-1.45,0.29-2.76,0.77-3.93,1.44c-1.17,0.67-2.11,1.6-2.84,2.76c-0.73,1.17-1.09,2.69-1.09,4.55
				c0,2.96,0.93,5.15,2.8,6.58c1.87,1.43,4.44,2.14,7.71,2.14c3.37,0,6.04-0.61,8.02-1.83c1.97-1.22,3.48-2.62,4.51-4.2
				c1.04-1.58,1.7-3.11,1.99-4.59c0.28-1.48,0.43-2.48,0.43-3V69.33z"/>
			<path class="fill-current dark:text-white" d="M390.44,54.62h-8.72v27.94c0,1.61,0.18,2.88,0.55,3.81c0.36,0.93,0.92,1.65,1.67,2.14
				c0.75,0.49,1.66,0.79,2.72,0.9c1.06,0.1,2.3,0.13,3.7,0.08v2.57c-1.51,0.1-2.97,0.09-4.4-0.04c-1.43-0.13-2.69-0.52-3.77-1.17
				c-1.09-0.65-1.96-1.62-2.61-2.92c-0.65-1.3-0.92-3.09-0.82-5.37V54.62h-7.39v-2.57h7.39V39.6h2.96v12.45h8.72V54.62z"/>
			<path class="fill-current dark:text-white" d="M397.28,78.75c0.1,1.87,0.52,3.52,1.25,4.94c0.73,1.43,1.67,2.65,2.84,3.66s2.53,1.78,4.09,2.3
				c1.56,0.52,3.24,0.78,5.06,0.78c1.3,0,2.69-0.12,4.16-0.35c1.48-0.23,2.85-0.66,4.12-1.28c1.27-0.62,2.32-1.49,3.15-2.61
				c0.83-1.12,1.25-2.53,1.25-4.24c0-2.23-0.67-3.92-2.02-5.06c-1.35-1.14-3.05-2.02-5.1-2.65c-2.05-0.62-4.26-1.13-6.62-1.52
				c-2.36-0.39-4.57-0.97-6.62-1.75c-2.05-0.78-3.75-1.88-5.1-3.31c-1.35-1.43-2.02-3.51-2.02-6.27c0-1.97,0.44-3.62,1.32-4.94
				c0.88-1.32,2.01-2.37,3.39-3.15c1.37-0.78,2.92-1.34,4.63-1.67c1.71-0.34,3.42-0.51,5.14-0.51c2.07,0,4.02,0.23,5.84,0.7
				c1.82,0.47,3.39,1.22,4.71,2.26c1.32,1.04,2.36,2.36,3.11,3.97c0.75,1.61,1.13,3.55,1.13,5.84h-2.96c0-1.82-0.3-3.37-0.9-4.67
				c-0.6-1.3-1.43-2.35-2.49-3.15c-1.06-0.8-2.32-1.4-3.77-1.79c-1.45-0.39-3.01-0.58-4.67-0.58c-1.35,0-2.71,0.13-4.09,0.39
				c-1.38,0.26-2.61,0.7-3.7,1.32c-1.09,0.62-1.98,1.43-2.69,2.41c-0.7,0.99-1.05,2.18-1.05,3.58c0,1.61,0.39,2.91,1.17,3.89
				c0.78,0.99,1.8,1.78,3.07,2.37c1.27,0.6,2.7,1.08,4.28,1.44c1.58,0.36,3.18,0.73,4.79,1.09c1.97,0.36,3.83,0.79,5.56,1.28
				c1.74,0.49,3.24,1.17,4.51,2.02c1.27,0.86,2.27,1.96,3,3.31c0.73,1.35,1.09,3.06,1.09,5.14c0,2.18-0.49,3.97-1.48,5.37
				c-0.99,1.4-2.23,2.53-3.74,3.39c-1.51,0.86-3.18,1.45-5.02,1.79c-1.84,0.34-3.65,0.51-5.41,0.51c-2.28,0-4.4-0.3-6.34-0.9
				c-1.95-0.6-3.65-1.5-5.1-2.72c-1.45-1.22-2.6-2.71-3.42-4.48c-0.83-1.76-1.27-3.81-1.32-6.15H397.28z"/>
		</g>
		<g>
			<polygon class="st1" points="72.83,0.99 53.12,22.96 34.71,0.67 17.59,13.27 42.46,45.9 42.14,92.42 64.11,92.42 64.11,45.26 88.98,14.24"/>
			<polygon class="st1" points="92.21,16.5 82.2,29.1 82.2,92.75 104.49,92.75 104.49,26.19"/>
			<polygon class="st1" points="14.35,16.5 24.37,29.1 24.37,92.75 2.08,92.75 2.08,26.19"/>
		</g>
	</g>
</switch>
</svg>
