<?xml version="1.0" standalone="no"?>
<!DOCTYPE svg PUBLIC "-//W3C//DTD SVG 20010904//EN"
 "http://www.w3.org/TR/2001/REC-SVG-20010904/DTD/svg10.dtd">
<svg version="1.0" xmlns="http://www.w3.org/2000/svg"
 width="256.000000pt" height="256.000000pt" viewBox="0 0 256.000000 256.000000"
 preserveAspectRatio="xMidYMid meet">

<g transform="translate(0.000000,256.000000) scale(0.100000,-0.100000)"
fill="#000000" stroke="none">
<path d="M615 2521 c-81 -20 -146 -72 -187 -151 l-23 -45 -5 -595 -5 -595 -45
3 c-25 1 -55 0 -67 -3 l-23 -5 0 -365 0 -364 68 -3 67 -3 5 -80 c9 -126 56
-200 163 -257 l42 -23 740 0 740 0 57 28 c65 32 111 84 139 157 18 48 19 90
19 894 l0 844 -291 286 -291 286 -537 -1 c-295 -1 -549 -4 -566 -8z m995 -249
c0 -168 0 -169 31 -230 33 -66 77 -109 149 -144 41 -20 63 -23 238 -26 l192
-4 0 -791 0 -792 -24 -52 c-17 -36 -38 -60 -67 -80 l-43 -28 -728 -3 c-701 -2
-729 -2 -766 17 -76 39 -112 103 -112 201 l0 60 503 0 504 0 61 30 c111 56
182 172 190 310 10 169 -69 307 -212 371 -46 20 -61 21 -547 21 l-499 1 0 576
c0 539 2 579 19 616 20 44 50 74 96 98 26 14 93 16 523 17 l492 0 0 -168z
m340 -87 l225 -226 -171 3 c-167 3 -171 4 -212 31 -23 15 -54 46 -69 69 -27
40 -28 46 -31 205 -3 156 -2 164 15 154 10 -5 119 -111 243 -236z m-1210
-1250 c38 -20 64 -75 56 -120 -4 -17 -20 -45 -37 -61 -27 -25 -38 -29 -104
-32 l-75 -4 0 -69 0 -69 -30 0 -30 0 0 191 0 192 94 -6 c57 -3 106 -12 126
-22z m347 -7 c50 -30 77 -95 71 -177 -6 -74 -24 -114 -66 -146 -22 -16 -46
-21 -124 -23 l-98 -4 0 184 c0 102 3 188 7 191 13 14 178 -5 210 -25z m393 2
l0 -30 -90 0 -90 0 0 -55 0 -55 80 0 c78 0 80 -1 80 -25 0 -23 -3 -24 -77 -27
l-78 -3 4 -77 3 -78 -36 0 -36 0 0 184 c0 168 2 185 18 188 9 2 63 5 120 6
l102 2 0 -30z"/>
<path d="M580 835 l0 -65 55 0 c64 0 95 22 95 68 0 44 -27 62 -93 62 l-57 0 0
-65z"/>
<path d="M940 765 l0 -135 44 0 c33 0 52 6 73 24 27 23 28 28 28 111 0 83 -1
88 -28 111 -21 18 -40 24 -73 24 l-44 0 0 -135z"/>
</g>
</svg>
