<?xml version="1.0" standalone="no"?>
<!DOCTYPE svg PUBLIC "-//W3C//DTD SVG 20010904//EN"
 "http://www.w3.org/TR/2001/REC-SVG-20010904/DTD/svg10.dtd">
<svg version="1.0" xmlns="http://www.w3.org/2000/svg"
 width="256.000000pt" height="256.000000pt" viewBox="0 0 256.000000 256.000000"
 preserveAspectRatio="xMidYMid meet">

<g transform="translate(0.000000,256.000000) scale(0.100000,-0.100000)"
fill="#000000" stroke="none">
<path d="M750 2316 l-685 -122 0 -909 0 -909 660 -116 c363 -64 675 -119 693
-123 l32 -7 0 115 0 114 500 3 499 3 23 23 23 23 0 874 0 874 -23 23 -23 23
-499 3 -500 3 0 114 c0 63 -3 114 -7 114 -5 -1 -316 -56 -693 -123z m1670
-1031 l0 -845 -485 0 -485 0 0 85 0 85 400 0 400 0 0 50 0 50 -400 0 -400 0 0
75 0 75 400 0 400 0 0 50 0 50 -400 0 -400 0 0 75 0 75 400 0 400 0 0 50 0 50
-400 0 -400 0 0 75 0 75 400 0 400 0 0 50 0 50 -400 0 -400 0 0 75 0 75 400 0
400 0 0 50 0 50 -400 0 -400 0 0 75 0 75 400 0 400 0 0 50 0 50 -400 0 -400 0
0 85 0 85 485 0 485 0 0 -845z m-1291 378 c0 -10 -37 -182 -83 -383 -78 -344
-84 -365 -104 -364 -12 0 -48 1 -80 2 l-58 2 -48 238 c-27 130 -52 240 -55
244 -4 4 -28 -98 -55 -227 l-49 -235 -73 0 c-68 0 -74 2 -79 23 -10 43 -133
662 -132 663 1 1 30 4 65 7 46 5 64 3 67 -6 3 -6 22 -119 43 -251 l38 -238 54
253 55 254 68 8 c38 5 71 6 75 3 3 -3 29 -124 58 -268 29 -145 53 -258 53
-253 1 6 21 127 46 270 25 143 45 261 45 262 0 2 67 9 113 11 29 2 37 -2 36
-15z"/>
</g>
</svg>
